<?xml version="1.0" standalone="no"?>
<!DOCTYPE svg PUBLIC "-//W3C//DTD SVG 20010904//EN"
 "http://www.w3.org/TR/2001/REC-SVG-20010904/DTD/svg10.dtd">
<svg version="1.0" xmlns="http://www.w3.org/2000/svg"
 width="166.000000pt" height="40.000000pt" viewBox="0 0 166.000000 40.000000"
 preserveAspectRatio="xMidYMid meet">

<g transform="translate(0.000000,40.000000) scale(0.100000,-0.100000)"
fill="#000000" stroke="none">
<path d="M680 322 c0 -26 -3 -28 -28 -24 -54 7 -82 -55 -47 -105 12 -17 25
-22 55 -20 l40 1 0 88 c0 52 -4 88 -10 88 -5 0 -10 -13 -10 -28z m-12 -44 c18
-18 15 -75 -5 -87 -28 -15 -53 5 -53 42 0 33 15 57 35 57 6 0 16 -5 23 -12z"/>
<path d="M1152 265 l-2 -90 36 -3 c49 -3 64 12 64 63 0 51 -18 70 -59 62 -28
-6 -30 -4 -34 26 -2 18 -5 -8 -5 -58z m78 6 c15 -29 12 -56 -9 -75 -23 -21
-49 -11 -57 21 -14 55 41 100 66 54z"/>
<path d="M1290 340 c0 -5 5 -10 10 -10 6 0 10 5 10 10 0 6 -4 10 -10 10 -5 0
-10 -4 -10 -10z"/>
<path d="M1350 340 c0 -5 5 -10 10 -10 6 0 10 5 10 10 0 6 -4 10 -10 10 -5 0
-10 -4 -10 -10z"/>
<path d="M1553 260 c0 -52 2 -84 4 -70 8 44 22 47 49 12 14 -17 30 -32 36 -32
5 0 -4 17 -21 38 l-30 39 27 26 c15 16 21 27 13 27 -7 0 -22 -11 -33 -25 -29
-37 -37 -31 -41 28 -2 28 -4 9 -4 -43z"/>
<path d="M750 291 c-23 -15 -4 -24 20 -9 18 11 23 10 36 -7 14 -19 13 -20 -17
-26 -45 -10 -64 -31 -50 -58 9 -16 20 -20 54 -19 l42 2 -5 61 c-5 58 -6 60
-35 63 -16 1 -37 -2 -45 -7z m64 -60 c18 -28 -33 -61 -55 -35 -9 11 -8 18 1
29 14 17 46 20 54 6z"/>
<path d="M870 233 c0 -75 18 -85 22 -12 2 36 8 55 20 63 26 16 41 -5 49 -67 7
-52 7 -52 5 13 l-1 65 -47 1 -48 1 0 -64z"/>
<path d="M1020 285 c-15 -18 -7 -19 19 -3 10 6 26 8 35 5 23 -9 20 -37 -5 -37
-34 0 -59 -19 -59 -45 0 -26 15 -32 73 -33 25 0 27 3 27 45 0 24 -5 53 -10 64
-13 23 -62 26 -80 4z m70 -65 c0 -21 -27 -40 -47 -33 -7 3 -13 13 -13 23 0 19
13 28 43 29 10 1 17 -6 17 -19z"/>
<path d="M1290 235 c0 -37 4 -65 10 -65 6 0 10 28 10 65 0 37 -4 65 -10 65 -6
0 -10 -28 -10 -65z"/>
<path d="M1350 220 c0 -65 -3 -81 -17 -89 -16 -9 -16 -10 3 -11 12 0 25 7 28
16 10 26 7 164 -4 164 -6 0 -10 -33 -10 -80z"/>
<path d="M1420 285 c-15 -18 -7 -19 19 -3 15 9 23 9 35 -1 22 -18 20 -31 -5
-31 -34 0 -59 -19 -59 -45 0 -26 15 -32 72 -33 26 0 27 1 22 52 -3 28 -7 57
-10 64 -5 17 -59 15 -74 -3z m68 -67 c2 -9 -7 -22 -19 -28 -17 -10 -24 -9 -38
5 -15 15 -15 17 4 31 24 18 49 14 53 -8z"/>
</g>
</svg>
